<svg xmlns="http://www.w3.org/2000/svg" version="1.1" xmlns:xlink="http://www.w3.org/1999/xlink" xmlns:svgjs="http://svgjs.dev/svgjs" viewBox="0 0 800 800" id="qqquad"><g shape-rendering="crispEdges" stroke-linejoin="round" fill="none" stroke-width="10" stroke="hsl(0, 0%, 100%)"><polygon points="600,0 800,0 800,200"></polygon><polygon points="600,200 600,0 400,0"></polygon><polygon points="600,300 500,200 600,200"></polygon><polygon points="500,200 400,200 400,300"></polygon><polygon points="500,400 400,400 400,300"></polygon><polygon points="600,300 600,400 500,400"></polygon><polygon points="800,400 800,200 600,400"></polygon><polygon points="400,0 200,0 200,200"></polygon><polygon points="0,0 0,200 200,200"></polygon><polygon points="200,400 0,200 200,200"></polygon><polygon points="400,300 400,200 300,200"></polygon><polygon points="300,200 300,300 200,300"></polygon><polygon points="300,300 200,400 200,300"></polygon><polygon points="400,300 400,400 300,300"></polygon><polygon points="200,400 400,600 400,400"></polygon><polygon points="200,400 200,600 0,600"></polygon><polygon points="200,600 200,800 0,800"></polygon><polygon points="200,800 200,600 400,800"></polygon><polygon points="800,400 600,400 800,600"></polygon><polygon points="600,400 500,500 600,500"></polygon><polygon points="400,500 500,500 400,400"></polygon><polygon points="500,500 400,600 500,600"></polygon><polygon points="500,600 600,500 500,500"></polygon><polygon points="600,700 500,700 500,600"></polygon><polygon points="500,600 400,700 400,600"></polygon><polygon points="500,700 500,800 400,700"></polygon><polygon points="500,700 600,800 600,700"></polygon><polygon points="800,800 600,800 800,600"></polygon></g><g fill="hsl(220, 62%, 45%)" stroke-width="3" stroke="hsl(220, 43%, 13%)"></g></svg>